<svg xmlns="http://www.w3.org/2000/svg" width="1648" height="1893" fill="none" viewBox="0 0 1648 1893">
  <g clip-path="url(#a)">
    <path fill="#fff" d="M0 0h1648v1893H0z"/>
    <path fill="#FE9D00" fill-rule="evenodd" d="M1106.09 327.092c5.42-20.154 26.19-33.305 45.88-40.295 19.58-6.953 41.97 1.382 63.28 1.542 22.01.166 43.94-7.89 65.24-.574 21.69 7.45 42 22.515 54.76 41.792 12.52 18.921 6.89 43.339 15.34 64.148 8.92 21.962 44.49 40.668 35.58 61.296-10.78 24.993-57.36 10.369-75.25 30.618-13.2 14.947 11.3 49.304-5.27 60.545-16.67 11.309-40.29-12.407-61.19-15.454-14.46-2.107-28.79-2.094-42.86.286-23.34 3.95-43.42 22.846-67.31 18.352-22.85-4.298-48.83-19.748-56.81-41.7-8.54-23.499 7.58-47.159 16.48-69.215 6.56-16.262 26.82-25.202 28.75-42.923 2.5-22.986-22.57-46.315-16.62-68.418Z" clip-rule="evenodd" opacity=".1"/>
    <path fill="#FFE163" fill-rule="evenodd" d="M-211.492 1335.43c9.436-35.06 45.561-57.94 79.811-70.1 34.07-12.09 73.02 2.41 110.082 2.69 38.296.29 76.442-13.73 113.49-1 37.733 12.96 73.066 39.17 95.254 72.7 21.781 32.91 11.997 75.39 26.693 111.59 15.511 38.2 77.389 70.74 61.902 106.63-18.764 43.48-99.794 18.04-130.909 53.26-22.968 26 19.648 85.77-9.173 105.32-29 19.68-70.093-21.58-106.446-26.88-25.148-3.66-50.078-3.64-74.555.5-40.608 6.87-75.536 39.74-117.093 31.92-39.748-7.47-84.935-34.35-98.82-72.54-14.863-40.88 13.189-82.03 28.664-120.4 11.409-28.29 46.654-43.84 50.012-74.67 4.356-39.99-39.261-80.57-28.912-119.02Z" clip-rule="evenodd" opacity=".2"/>
    <path fill="#FFBE04" fill-rule="evenodd" d="M-100.706 1530.71c-13.218-33.81 2.275-73.67 22.62-103.78 20.24-29.96 60.192-41.41 90.184-63.19 30.99-22.5 53.37-56.42 90.739-68.17 38.06-11.97 82.051-11.85 119.812 1.97 37.066 13.56 54.407 53.55 87.72 73.96 35.161 21.54 104.275 10.99 113.112 49.06 10.707 46.13-69.604 73.76-73.736 120.57-3.049 34.56 66.724 57.36 55.136 90.21-11.659 33.05-69.22 24.24-101.621 41.55-22.414 11.98-42.463 26.79-59.704 44.66-28.602 29.63-37.198 76.82-75.283 95.19-36.426 17.58-88.744 22.77-122.586.28-36.227-24.07-38.082-73.85-48.404-113.91-7.61-29.54 11.523-62.98-4.073-89.78-20.23-34.76-79.42-41.53-93.916-78.62Z" clip-rule="evenodd" opacity=".2"/>
    <g filter="url(#b)" opacity=".3">
      <path fill="#FE9D00" fill-rule="evenodd" d="M1241.51 448.432c9.43-35.061 45.56-57.938 79.81-70.097 34.07-12.096 73.02 2.403 110.08 2.682 38.3.289 76.44-13.725 113.49-.999 37.73 12.961 73.07 39.168 95.26 72.701 21.78 32.915 11.99 75.392 26.69 111.59 15.51 38.205 77.39 70.745 61.9 106.63-18.76 43.477-99.79 18.037-130.91 53.262-22.97 26.002 19.65 85.769-9.17 105.322-29 19.675-70.1-21.582-106.45-26.882-25.15-3.666-50.08-3.643-74.55.498-40.61 6.87-75.54 39.742-117.1 31.924-39.74-7.477-84.93-34.354-98.82-72.541-14.86-40.879 13.19-82.036 28.67-120.405 11.41-28.288 46.65-43.84 50.01-74.667 4.36-39.986-39.26-80.569-28.91-119.018Z" clip-rule="evenodd"/>
    </g>
    <path fill="#FFEDB4" fill-rule="evenodd" d="M786.437-168.573c25.675 2.332 50.501 9.089 73.408 20.686 22.56 11.422 36.692 33.648 58.638 46.166 34.956 19.94 90.357 14.02 108.747 49.315 16.48 31.625-13.68 69.403-30.508 100.85-14.677 27.422-33.848 53.584-60.803 69.756-24.614 14.767-56.06 8.932-83.736 16.961-22.999 6.672-42.644 20.082-65.746 26.403-28.469 7.79-56.644 16.182-86.185 15.17-37.933-1.3-92.9 11.197-110.198-21.897-19.367-37.052 39.49-76.249 37.173-117.812-1.78-31.91-40.62-50.937-48.313-81.993-9.456-38.17-30.072-89.488-.821-116.354 31.538-28.967 84.867.979 128.073-.525 27.178-.945 53.191-9.186 80.271-6.726Z" clip-rule="evenodd"/>
    <path fill="#007AAB" fill-rule="evenodd" d="M38.17 373.759c26.798-24.498 69.557-24.381 104.976-16.232 35.234 8.106 60.292 41.263 91.399 61.413 32.142 20.821 71.843 29.499 96.251 60.139 24.858 31.206 40.575 72.294 41.27 112.497.682 39.463-30.393 70.029-37.45 108.455-7.447 40.555 27.255 101.248-5.089 123.191-39.186 26.584-93.855-38.411-139.024-25.423-33.342 9.588-29.516 82.893-64.329 83.897-35.03 1.01-47.518-55.866-75.33-79.868-19.239-16.605-40.275-29.982-63.144-39.642-37.939-16.026-85.06-7.07-115.907-35.993-29.505-27.665-53.172-74.612-44.363-114.278 9.43-42.463 55.204-62.101 88.872-86.145 24.822-17.727 62.903-11.904 82.3-36.099 25.16-31.382 10.18-89.045 39.568-115.912Z" clip-rule="evenodd" opacity=".2"/>
    <path fill="#007AAB" fill-rule="evenodd" d="M450.349 577.871c21.584 2.949 37.948 22.708 47.79 42.166 9.791 19.357 4.126 43.641 6.78 65.719 2.742 22.814 13.985 44.45 9.23 67.467-4.842 23.443-17.751 46.465-36.019 62.222-17.933 15.467-43.957 12.876-64.382 24.377-21.558 12.138-36.215 51.441-58.75 44.954-27.303-7.859-18.328-58.019-41.66-73.857-17.222-11.691-49.55 18.219-63.38 2.555-13.915-15.762 7.512-43.358 7.9-65.397.268-15.245-1.642-30.08-5.969-44.333-7.179-23.645-29.4-41.931-27.91-67.258 1.426-24.225 13.983-53.163 35.654-64.332 23.198-11.956 49.827 1.607 73.84 7.897 17.703 4.638 29.64 24.431 48.243 24.084 24.128-.45 44.962-29.497 68.633-26.264Z" clip-rule="evenodd" opacity=".1"/>
    <path fill="#67BCD9" fill-rule="evenodd" d="M1087.52 1371.3c32.47 16.25 47.67 56.22 52.74 92.21 5.05 35.8-16.94 71.07-24.62 107.33-7.93 37.46-1.82 77.64-21.69 111.4-20.24 34.38-52.98 63.76-90.27 78.81-36.598 14.76-76.264-3.31-114.669 3.86-40.534 7.56-84.78 61.69-116.847 39.35-38.852-27.07 2.263-101.38-26.036-138.91-20.889-27.7-87.965 2.12-101.367-30.03-13.484-32.34 35.151-64.37 47.606-98.93 8.616-23.91 13.574-48.34 14.407-73.15 1.381-41.16-23.851-81.95-7.889-121.11 15.267-37.45 50.629-76.36 90.82-82.34 43.024-6.39 77.748 29.32 112.252 52.14 25.439 16.83 33.636 54.48 63.171 63.92 38.312 12.26 86.792-22.37 122.392-4.55Z" clip-rule="evenodd" opacity=".1"/>
    <path fill="#67BCD9" fill-rule="evenodd" d="M1337.11 1316.98c36.31.1 67.71 29.12 88.27 59.09 20.46 29.81 16.47 71.18 25.74 107.06 9.58 37.08 32.93 70.34 30.17 109.41-2.82 39.8-19.05 80.69-45.74 110.76-26.2 29.51-69.77 30.99-100.97 54.51-32.92 24.81-48.44 92.98-87.11 87.25-46.84-6.94-43.1-91.79-85.15-112.79-31.04-15.51-77.82 41.05-104.14 18.24-26.47-22.96 2.82-73.29-1.41-109.78-2.93-25.25-9.37-49.33-19.67-71.92-17.08-37.47-57.838-62.77-60.978-104.93-3.003-40.34 11.341-90.92 44.668-114.16 35.68-24.89 82.67-8.37 123.73-3.29 30.27 3.75 54.37 33.8 85.02 29.12 39.76-6.08 67.75-58.68 107.57-58.57Z" clip-rule="evenodd" opacity=".2"/>
    <path fill="url(#c)" fill-rule="evenodd" d="M1042.26 97.089c-17.49 3.05-35.2 3.011-52.511-.585-17.045-3.542-30.417-15.765-47.249-20.145-26.811-6.977-62.594 6.875-81.133-13.26-16.612-18.044-3.314-48.523 2.256-72.413 4.858-20.833 12.929-41.634 27.963-57.197 13.728-14.212 35.683-15.97 52.652-26.257 14.102-8.548 24.768-20.969 39.001-29.303 17.541-10.27 34.771-20.887 54.601-25.506 25.46-5.931 59.78-24.072 77.2-5.2 19.5 21.127-12.63 57.69-3.66 84.866 6.89 20.865 36.12 26.54 46.79 45.778 13.11 23.646 36 54.02 21.35 77.094-15.8 24.878-56.62 14.55-85.08 23.286-17.9 5.496-33.73 15.625-52.18 18.842Z" clip-rule="evenodd" opacity=".7"/>
  </g>
  <defs>
    <linearGradient id="c" x1="1035.88" x2="972.943" y1="102.673" y2="-131.001" gradientUnits="userSpaceOnUse">
      <stop stop-color="#FFEBCC"/>
      <stop offset="1" stop-color="#FFBE04" stop-opacity="0"/>
    </linearGradient>
    <clipPath id="a">
      <path fill="#fff" d="M0 0h1648v1893H0z"/>
    </clipPath>
    <filter id="b" width="551.675" height="470.731" x="1183.53" y="373.526" color-interpolation-filters="sRGB" filterUnits="userSpaceOnUse">
      <feFlood flood-opacity="0" result="BackgroundImageFix"/>
      <feColorMatrix in="SourceAlpha" result="hardAlpha" values="0 0 0 0 0 0 0 0 0 0 0 0 0 0 0 0 0 0 127 0"/>
      <feOffset dy="4"/>
      <feGaussianBlur stdDeviation="2"/>
      <feComposite in2="hardAlpha" operator="out"/>
      <feColorMatrix values="0 0 0 0 0 0 0 0 0 0 0 0 0 0 0 0 0 0 0.25 0"/>
      <feBlend in2="BackgroundImageFix" result="effect1_dropShadow_251_287"/>
      <feBlend in="SourceGraphic" in2="effect1_dropShadow_251_287" result="shape"/>
    </filter>
  </defs>
</svg>
